<svg width="205" height="75" viewBox="0 0 205 75" fill="none" xmlns="http://www.w3.org/2000/svg">
<path d="M27.7488 6.73529C28.7801 2.76884 32.3609 0 36.4592 0H193.305C199.055 0 203.33 5.31813 202.095 10.9338L189.555 67.9337C188.647 72.0605 184.99 75 180.765 75H21.6392C15.7492 75 11.4467 69.4358 12.9288 63.7353L27.7488 6.73529Z" fill="#E2E2E2"/>
<path d="M70.864 37H71.824V32.5H74.284V31.6H70.864V37ZM75.4997 32.74C75.9317 32.512 76.3277 32.344 76.9877 32.344C78.0557 32.344 78.2117 33.04 78.2117 34.048C77.8517 33.784 77.2877 33.7 76.8677 33.7C75.7037 33.7 74.8277 34.312 74.8277 35.416C74.8277 36.46 75.4997 37.084 76.4837 37.084C77.3717 37.084 77.8877 36.712 78.2117 36.304V37H79.1237V33.688C79.1237 32.284 78.5837 31.48 77.0477 31.48C76.3757 31.48 75.7277 31.672 75.2477 31.972L75.4997 32.74ZM76.8197 36.22C76.1957 36.22 75.8477 35.884 75.8477 35.368C75.8477 34.744 76.4237 34.48 76.9997 34.48C77.4677 34.48 77.8757 34.6 78.2117 34.84V35.524C77.9357 35.848 77.5277 36.22 76.8197 36.22ZM80.7312 39.4H81.6912V36.748C82.0752 37 82.6392 37.12 83.2152 37.12C84.9072 37.12 86.0232 35.86 86.0232 34.216C86.0232 32.62 85.0632 31.48 83.5272 31.48C82.7832 31.48 82.0632 31.804 81.6912 32.236V31.6H80.7312V39.4ZM83.2512 32.38C84.3672 32.38 85.0032 33.16 85.0032 34.252C85.0032 35.392 84.2832 36.22 83.1312 36.22C82.6152 36.22 82.1712 36.124 81.6912 35.8V33.124C82.0272 32.704 82.6152 32.38 83.2512 32.38ZM87.6872 32.74C88.1192 32.512 88.5152 32.344 89.1752 32.344C90.2432 32.344 90.3992 33.04 90.3992 34.048C90.0392 33.784 89.4752 33.7 89.0552 33.7C87.8912 33.7 87.0152 34.312 87.0152 35.416C87.0152 36.46 87.6872 37.084 88.6712 37.084C89.5592 37.084 90.0752 36.712 90.3992 36.304V37H91.3112V33.688C91.3112 32.284 90.7712 31.48 89.2352 31.48C88.5632 31.48 87.9152 31.672 87.4352 31.972L87.6872 32.74ZM89.0072 36.22C88.3832 36.22 88.0352 35.884 88.0352 35.368C88.0352 34.744 88.6112 34.48 89.1872 34.48C89.6552 34.48 90.0632 34.6 90.3992 34.84V35.524C90.1232 35.848 89.7152 36.22 89.0072 36.22ZM96.8787 37H97.8387V31.6H96.8787V33.82H93.8787V31.6H92.9187V37H93.8787V34.72H96.8787V37ZM98.8909 32.56H100.871V37H101.831V32.56H103.811V31.6H98.8909V32.56ZM105.82 37L108.94 32.98V37H109.9V31.6H108.94L105.82 35.62V31.6H104.86V37H105.82ZM114.009 31.6C112.209 31.6 111.597 32.476 111.597 33.4C111.597 34.288 112.209 34.828 112.761 34.96L111.201 37H112.365L113.685 35.2H114.729V37H115.689V31.6H114.009ZM112.617 33.424C112.617 32.92 112.953 32.5 113.853 32.5H114.729V34.3H113.625C113.145 34.3 112.617 33.976 112.617 33.424ZM70.12 56.26V53.716H70.804C71.228 53.156 71.48 52.216 71.56 50.896L71.644 49.6H75.628V53.716H76.528V56.26H75.232V55H71.404V56.26H70.12ZM72.892 51.448C72.796 52.496 72.58 53.252 72.244 53.716H74.248V50.896H72.928L72.892 51.448ZM77.904 54.34C77.368 53.804 77.1 53.124 77.1 52.3C77.1 51.476 77.368 50.8 77.904 50.272C78.448 49.736 79.16 49.468 80.04 49.468C80.92 49.468 81.628 49.736 82.164 50.272C82.708 50.8 82.98 51.476 82.98 52.3C82.98 53.124 82.708 53.804 82.164 54.34C81.628 54.868 80.92 55.132 80.04 55.132C79.16 55.132 78.448 54.868 77.904 54.34ZM78.576 52.3C78.576 52.748 78.712 53.12 78.984 53.416C79.264 53.704 79.616 53.848 80.04 53.848C80.472 53.848 80.824 53.708 81.096 53.428C81.376 53.14 81.516 52.764 81.516 52.3C81.516 51.852 81.376 51.484 81.096 51.196C80.816 50.908 80.464 50.764 80.04 50.764C79.624 50.764 79.276 50.908 78.996 51.196C78.716 51.476 78.576 51.844 78.576 52.3ZM88.8772 55.132C88.2532 55.132 87.7092 55.008 87.2452 54.76C86.7812 54.504 86.4372 54.156 86.2132 53.716L86.9932 52.708C87.4652 53.404 88.0652 53.752 88.7932 53.752C89.2252 53.752 89.5572 53.644 89.7892 53.428C90.0292 53.204 90.1492 52.924 90.1492 52.588C90.1492 52.204 90.0092 51.912 89.7292 51.712C89.4572 51.504 89.0772 51.4 88.5892 51.4H87.9892V50.02H88.5292C88.8892 50.02 89.1932 49.916 89.4412 49.708C89.6972 49.492 89.8252 49.212 89.8252 48.868C89.8252 48.556 89.7332 48.308 89.5492 48.124C89.3732 47.94 89.1092 47.848 88.7572 47.848C88.1092 47.848 87.5812 48.148 87.1732 48.748L86.4052 47.776C86.8692 46.904 87.6972 46.468 88.8892 46.468C89.6172 46.468 90.2012 46.66 90.6412 47.044C91.0812 47.428 91.3012 47.948 91.3012 48.604C91.3012 49.556 90.8732 50.22 90.0172 50.596V50.632C90.5292 50.72 90.9252 50.948 91.2052 51.316C91.4852 51.684 91.6252 52.124 91.6252 52.636C91.6252 53.396 91.3652 54.004 90.8452 54.46C90.3252 54.908 89.6692 55.132 88.8772 55.132ZM93.0565 52.36V51.076H96.0805V52.36H93.0565ZM102.494 49.6L100.694 52.18L102.614 55H100.934L99.6744 53.056L98.3664 55H96.7704L98.6904 52.252L96.8904 49.6H98.5824L99.7224 51.388L100.898 49.6H102.494ZM109.699 55V50.98H108.271L108.235 51.556C108.147 52.524 107.999 53.268 107.791 53.788C107.591 54.308 107.335 54.66 107.023 54.844C106.719 55.02 106.311 55.108 105.799 55.108L105.679 53.764C105.855 53.78 106.019 53.732 106.171 53.62C106.331 53.5 106.483 53.244 106.627 52.852C106.771 52.452 106.863 51.928 106.903 51.28L106.987 49.6H111.079V55H109.699ZM116.852 53.488L117.248 54.46C116.72 54.908 116.032 55.132 115.184 55.132C114.312 55.132 113.608 54.872 113.072 54.352C112.544 53.832 112.28 53.148 112.28 52.3C112.28 51.492 112.54 50.82 113.06 50.284C113.58 49.74 114.272 49.468 115.136 49.468C115.848 49.468 116.452 49.704 116.948 50.176C117.444 50.64 117.692 51.24 117.692 51.976C117.692 52.28 117.664 52.528 117.608 52.72H113.708C113.764 53.12 113.94 53.432 114.236 53.656C114.532 53.872 114.896 53.98 115.328 53.98C115.936 53.98 116.444 53.816 116.852 53.488ZM115.076 50.62C114.292 50.62 113.82 51.012 113.66 51.796H116.312C116.32 51.46 116.212 51.18 115.988 50.956C115.764 50.732 115.46 50.62 115.076 50.62ZM118.181 50.98V49.6H123.101V50.98H121.337V55H119.957V50.98H118.181Z" fill="black"/>
<path d="M56.9908 32.0549C56.9423 31.6119 56.7049 31.2079 56.335 30.939L51.8199 27.6566L53.4627 22.4545C53.5973 22.0281 53.542 21.5673 53.31 21.1815C53.078 20.7958 52.6898 20.5195 52.2379 20.4182L46.7218 19.1821L46.0177 13.7883C45.96 13.3464 45.7143 12.947 45.3388 12.6853C44.9635 12.4234 44.4917 12.3223 44.0361 12.4064L38.4732 13.4304L35.5436 8.77782C35.3036 8.3967 34.9098 8.12778 34.4559 8.03525C34.0019 7.94261 33.5283 8.03439 33.1475 8.289L28.4999 11.3959L23.852 8.28911C23.4711 8.03461 22.9974 7.94272 22.5436 8.03536C22.0896 8.12788 21.6959 8.3967 21.4559 8.77803L18.5268 13.4307L12.9639 12.4067C12.5081 12.3229 12.0364 12.4238 11.661 12.6857C11.2856 12.9474 11.0398 13.3466 10.9823 13.7886L10.2781 19.1825L4.76204 20.4185C4.31005 20.5198 3.92207 20.7961 3.68995 21.1818C3.45794 21.5677 3.40272 22.0283 3.53721 22.4545L5.17974 27.6568L0.66494 30.939C0.294996 31.2079 0.0576448 31.6118 0.00921701 32.0548C-0.0393221 32.4978 0.105293 32.9402 0.408996 33.2771L4.11411 37.3886L1.38045 42.1495C1.15645 42.5396 1.11081 43.0012 1.2542 43.4249C1.3977 43.8483 1.71733 44.1961 2.13748 44.3853L7.26481 46.6948L6.78509 52.1114C6.74568 52.5553 6.89954 52.9949 7.21026 53.3259C7.52064 53.657 7.96028 53.8497 8.42418 53.8587L14.0874 53.967L15.9446 59.1024C16.0967 59.5232 16.4236 59.8648 16.8475 60.0459C17.2717 60.2273 17.7547 60.2316 18.1824 60.0588L23.4022 57.9472L27.2753 61.9137C27.5927 62.2387 28.036 62.4231 28.5 62.4231C28.9641 62.4231 29.4074 62.2387 29.7248 61.9137L33.598 57.9472L38.8173 60.0588C39.2449 60.2315 39.7282 60.2269 40.1522 60.0459C40.5761 59.8648 40.9031 59.5234 41.0551 59.1025L42.9125 53.967L48.5756 53.8587C49.0395 53.8498 49.479 53.657 49.7895 53.3259C50.1 52.9949 50.254 52.5554 50.2147 52.1114L49.7349 46.6948L54.8626 44.3853C55.2829 44.1961 55.6025 43.8483 55.7459 43.4248C55.8893 43.0013 55.8436 42.5396 55.6195 42.1494L52.8856 37.3885L56.5911 33.277C56.8946 32.9403 57.0392 32.4978 56.9908 32.0549ZM28.4999 50.6268C19.6431 50.6268 12.4377 43.7115 12.4377 35.2115C12.4377 26.7115 19.6432 19.7962 28.4999 19.7962C37.3566 19.7962 44.5621 26.7116 44.5621 35.2115C44.5621 43.7114 37.3566 50.6268 28.4999 50.6268Z" fill="#C4C4C4"/>
<path d="M56.9908 32.0549C56.9423 31.6119 56.7049 31.2079 56.335 30.939L51.8199 27.6566L53.4627 22.4545C53.5973 22.0281 53.542 21.5673 53.31 21.1815C53.078 20.7958 52.6898 20.5195 52.2379 20.4182L46.7218 19.1821L46.0177 13.7883C45.96 13.3464 45.7143 12.947 45.3388 12.6853C44.9635 12.4234 44.4917 12.3223 44.0361 12.4064L38.4732 13.4304L35.5436 8.77782C35.3036 8.3967 34.9098 8.12778 34.4559 8.03525C34.0019 7.94261 33.5283 8.03439 33.1475 8.289L28.4999 11.3959L23.852 8.28911C23.4711 8.03461 22.9974 7.94272 22.5436 8.03536C22.0896 8.12788 21.6959 8.3967 21.4559 8.77803L18.5268 13.4307L12.9639 12.4067C12.5081 12.3229 12.0364 12.4238 11.661 12.6857C11.2856 12.9474 11.0398 13.3466 10.9823 13.7886L10.2781 19.1825L4.76204 20.4185C4.31005 20.5198 3.92207 20.7961 3.68995 21.1818C3.45794 21.5677 3.40272 22.0283 3.53721 22.4545L5.17974 27.6568L0.66494 30.939C0.294996 31.2079 0.0576448 31.6118 0.00921701 32.0548C-0.0393221 32.4978 0.105293 32.9402 0.408996 33.2771L4.11411 37.3886L1.38045 42.1495C1.15645 42.5396 1.11081 43.0012 1.2542 43.4249C1.3977 43.8483 1.71733 44.1961 2.13748 44.3853L7.26481 46.6948L6.78509 52.1114C6.74568 52.5553 6.89954 52.9949 7.21026 53.3259C7.52064 53.657 7.96028 53.8497 8.42418 53.8587L14.0874 53.967L15.9446 59.1024C16.0967 59.5232 16.4236 59.8648 16.8475 60.0459C17.2717 60.2273 17.7547 60.2316 18.1824 60.0588L23.4022 57.9472L27.2753 61.9137C27.5927 62.2387 28.036 62.4231 28.5 62.4231C28.9641 62.4231 29.4074 62.2387 29.7248 61.9137L33.598 57.9472L38.8173 60.0588C39.2449 60.2315 39.7282 60.2269 40.1522 60.0459C40.5761 59.8648 40.9031 59.5234 41.0551 59.1025L42.9125 53.967L48.5756 53.8587C49.0395 53.8498 49.479 53.657 49.7895 53.3259C50.1 52.9949 50.254 52.5554 50.2147 52.1114L49.7349 46.6948L54.8626 44.3853C55.2829 44.1961 55.6025 43.8483 55.7459 43.4248C55.8893 43.0013 55.8436 42.5396 55.6195 42.1494L52.8856 37.3885L56.5911 33.277C56.8946 32.9403 57.0392 32.4978 56.9908 32.0549ZM28.4999 50.6268C19.6431 50.6268 12.4377 43.7115 12.4377 35.2115C12.4377 26.7115 19.6432 19.7962 28.4999 19.7962C37.3566 19.7962 44.5621 26.7116 44.5621 35.2115C44.5621 43.7114 37.3566 50.6268 28.4999 50.6268Z" fill="url(#paint0_linear)"/>
<path d="M28.4999 23.018C21.4944 23.018 15.7949 28.4879 15.7949 35.2114C15.7949 41.9348 21.4945 47.4047 28.4999 47.4047C35.5057 47.4047 41.2049 41.9348 41.2049 35.2114C41.2049 28.4879 35.5056 23.018 28.4999 23.018ZM35.0807 32.8996L27.8891 39.8016C27.5612 40.1162 27.1317 40.2736 26.7021 40.2736C26.2726 40.2736 25.843 40.1162 25.5153 39.8016L21.9192 36.3505C21.2638 35.7215 21.2638 34.7015 21.9192 34.0723C22.5746 33.4433 23.6375 33.4431 24.293 34.0723L26.7021 36.3842L32.7069 30.6213C33.3624 29.9923 34.4252 29.9921 35.0808 30.6213C35.7362 31.2504 35.7362 32.2705 35.0807 32.8996Z" fill="#C4C4C4"/>
<path d="M28.4999 23.018C21.4944 23.018 15.7949 28.4879 15.7949 35.2114C15.7949 41.9348 21.4945 47.4047 28.4999 47.4047C35.5057 47.4047 41.2049 41.9348 41.2049 35.2114C41.2049 28.4879 35.5056 23.018 28.4999 23.018ZM35.0807 32.8996L27.8891 39.8016C27.5612 40.1162 27.1317 40.2736 26.7021 40.2736C26.2726 40.2736 25.843 40.1162 25.5153 39.8016L21.9192 36.3505C21.2638 35.7215 21.2638 34.7015 21.9192 34.0723C22.5746 33.4433 23.6375 33.4431 24.293 34.0723L26.7021 36.3842L32.7069 30.6213C33.3624 29.9923 34.4252 29.9921 35.0808 30.6213C35.7362 31.2504 35.7362 32.2705 35.0807 32.8996Z" fill="url(#paint1_linear)"/>
<defs>
<linearGradient id="paint0_linear" x1="28.5" y1="8" x2="28.5" y2="62.4231" gradientUnits="userSpaceOnUse">
<stop stop-color="#E7B56D"/>
<stop offset="1" stop-color="#DC8A60"/>
</linearGradient>
<linearGradient id="paint1_linear" x1="28.4999" y1="23.018" x2="28.4999" y2="47.4047" gradientUnits="userSpaceOnUse">
<stop stop-color="#E7B56D"/>
<stop offset="1" stop-color="#DC8A60"/>
</linearGradient>
</defs>
</svg>
