<svg width="208" height="75" viewBox="0 0 208 75" fill="none" xmlns="http://www.w3.org/2000/svg">
<path d="M30.6253 6.73529C31.6566 2.76884 35.2374 0 39.3357 0H196.181C201.931 0 206.206 5.31813 204.971 10.9338L192.431 67.9337C191.523 72.0605 187.867 75 183.641 75H24.5157C18.6256 75 14.3232 69.4358 15.8053 63.7353L30.6253 6.73529Z" fill="#DEDEDE"/>
<path d="M69.7405 27.4H70.7005V24.748C71.0845 25 71.6485 25.12 72.2245 25.12C73.9165 25.12 75.0325 23.86 75.0325 22.216C75.0325 20.62 74.0725 19.48 72.5365 19.48C71.7925 19.48 71.0725 19.804 70.7005 20.236V19.6H69.7405V27.4ZM72.2605 20.38C73.3765 20.38 74.0125 21.16 74.0125 22.252C74.0125 23.392 73.2925 24.22 72.1405 24.22C71.6245 24.22 71.1805 24.124 70.7005 23.8V21.124C71.0365 20.704 71.6245 20.38 72.2605 20.38ZM80.6684 23.656C80.3204 23.98 79.7084 24.22 79.0124 24.22C77.9564 24.22 77.2124 23.62 77.1284 22.6H81.2804C81.3164 22.432 81.3404 22.216 81.3404 21.952C81.3404 20.464 80.2244 19.48 78.8324 19.48C77.0564 19.48 76.0484 20.728 76.0484 22.3C76.0484 24.004 77.1884 25.12 78.9404 25.12C79.6604 25.12 80.4404 24.892 80.9684 24.412L80.6684 23.656ZM78.7844 20.38C79.7204 20.38 80.2964 20.932 80.3444 21.82H77.0684C77.1764 20.992 77.8004 20.38 78.7844 20.38ZM82.6428 25H83.6028V21.064L85.5468 23.572H85.5828L87.4548 21.064V25H88.4148V19.6H87.5628L85.5948 22.276L83.5188 19.6H82.6428V25ZM89.7945 22.3C89.7945 23.92 90.9465 25.12 92.6745 25.12C94.4025 25.12 95.5545 23.92 95.5545 22.3C95.5545 20.68 94.4025 19.48 92.6745 19.48C90.9465 19.48 89.7945 20.68 89.7945 22.3ZM90.8145 22.3C90.8145 21.16 91.6185 20.38 92.6745 20.38C93.7545 20.38 94.5345 21.172 94.5345 22.3C94.5345 23.452 93.7545 24.22 92.6745 24.22C91.5945 24.22 90.8145 23.428 90.8145 22.3ZM100.9 25H101.86V19.6H100.9V21.82H97.8997V19.6H96.9397V25H97.8997V22.72H100.9V25ZM102.912 20.56H104.892V25H105.852V20.56H107.832V19.6H102.912V20.56ZM73.7005 43H74.6605V37.6H73.7005V39.82H70.7005V37.6H69.7405V43H70.7005V40.72H73.7005V43ZM80.6567 41.656C80.3087 41.98 79.6967 42.22 79.0007 42.22C77.9447 42.22 77.2007 41.62 77.1167 40.6H81.2687C81.3047 40.432 81.3287 40.216 81.3287 39.952C81.3287 38.464 80.2127 37.48 78.8207 37.48C77.0447 37.48 76.0367 38.728 76.0367 40.3C76.0367 42.004 77.1767 43.12 78.9287 43.12C79.6487 43.12 80.4287 42.892 80.9567 42.412L80.6567 41.656ZM78.7727 38.38C79.7087 38.38 80.2847 38.932 80.3327 39.82H77.0567C77.1647 38.992 77.7887 38.38 78.7727 38.38ZM83.5911 43L86.7111 38.98V43H87.6711V37.6H86.7111L83.5911 41.62V37.6H82.6311V43H83.5911ZM93.5682 41.524C93.2082 41.932 92.6682 42.22 92.0202 42.22C90.9522 42.22 90.0762 41.488 90.0762 40.3C90.0762 39.16 90.9522 38.38 91.9242 38.38C92.4882 38.38 93.0162 38.524 93.4722 38.944L93.9162 38.188C93.4122 37.684 92.6562 37.48 91.7922 37.48C90.2082 37.48 89.0562 38.728 89.0562 40.3C89.0562 42.004 90.2322 43.12 91.9482 43.12C92.7762 43.12 93.5682 42.808 94.0242 42.22L93.5682 41.524ZM99.1756 43H100.136V37.6H95.2756V43H96.2356V38.5H99.1756V43ZM101.873 45.4H102.833V42.748C103.217 43 103.781 43.12 104.357 43.12C106.049 43.12 107.165 41.86 107.165 40.216C107.165 38.62 106.205 37.48 104.669 37.48C103.925 37.48 103.205 37.804 102.833 38.236V37.6H101.873V45.4ZM104.393 38.38C105.509 38.38 106.145 39.16 106.145 40.252C106.145 41.392 105.425 42.22 104.273 42.22C103.757 42.22 103.313 42.124 102.833 41.8V39.124C103.169 38.704 103.757 38.38 104.393 38.38ZM108.829 38.74C109.261 38.512 109.657 38.344 110.317 38.344C111.385 38.344 111.541 39.04 111.541 40.048C111.181 39.784 110.617 39.7 110.197 39.7C109.033 39.7 108.157 40.312 108.157 41.416C108.157 42.46 108.829 43.084 109.813 43.084C110.701 43.084 111.217 42.712 111.541 42.304V43H112.453V39.688C112.453 38.284 111.913 37.48 110.377 37.48C109.705 37.48 109.057 37.672 108.577 37.972L108.829 38.74ZM110.149 42.22C109.525 42.22 109.177 41.884 109.177 41.368C109.177 40.744 109.753 40.48 110.329 40.48C110.797 40.48 111.205 40.6 111.541 40.84V41.524C111.265 41.848 110.857 42.22 110.149 42.22ZM114.061 43C114.553 43 115.369 43.048 116.041 43.048C117.721 43.048 118.525 42.496 118.525 41.476C118.525 40.804 118.129 40.36 117.265 40.204V40.18C117.913 40.084 118.345 39.58 118.345 38.944C118.345 37.972 117.529 37.552 116.017 37.552C115.237 37.552 114.529 37.6 114.061 37.6V43ZM116.173 40.576C117.037 40.576 117.505 40.84 117.505 41.404C117.505 41.968 117.013 42.268 116.125 42.268C115.693 42.268 115.309 42.244 115.021 42.232V40.576H116.173ZM116.089 38.332C116.785 38.332 117.325 38.548 117.325 39.136C117.325 39.664 116.869 39.976 116.233 39.976H115.021V38.368C115.261 38.356 115.657 38.332 116.089 38.332ZM123.95 43H124.91V37.6H123.95V39.82H120.95V37.6H119.99V43H120.95V40.72H123.95V43ZM126.287 40.3C126.287 41.92 127.439 43.12 129.167 43.12C130.895 43.12 132.047 41.92 132.047 40.3C132.047 38.68 130.895 37.48 129.167 37.48C127.439 37.48 126.287 38.68 126.287 40.3ZM127.307 40.3C127.307 39.16 128.111 38.38 129.167 38.38C130.247 38.38 131.027 39.172 131.027 40.3C131.027 41.452 130.247 42.22 129.167 42.22C128.087 42.22 127.307 41.428 127.307 40.3ZM137.584 41.524C137.224 41.932 136.684 42.22 136.036 42.22C134.968 42.22 134.092 41.488 134.092 40.3C134.092 39.16 134.968 38.38 135.94 38.38C136.504 38.38 137.032 38.524 137.488 38.944L137.932 38.188C137.428 37.684 136.672 37.48 135.808 37.48C134.224 37.48 133.072 38.728 133.072 40.3C133.072 42.004 134.248 43.12 135.964 43.12C136.792 43.12 137.584 42.808 138.04 42.22L137.584 41.524ZM138.537 38.56H140.517V43H141.477V38.56H143.457V37.6H138.537V38.56ZM148.59 41.656C148.242 41.98 147.63 42.22 146.934 42.22C145.878 42.22 145.134 41.62 145.05 40.6H149.202C149.238 40.432 149.262 40.216 149.262 39.952C149.262 38.464 148.146 37.48 146.754 37.48C144.978 37.48 143.97 38.728 143.97 40.3C143.97 42.004 145.11 43.12 146.862 43.12C147.582 43.12 148.362 42.892 148.89 42.412L148.59 41.656ZM146.706 38.38C147.642 38.38 148.218 38.932 148.266 39.82H144.99C145.098 38.992 145.722 38.38 146.706 38.38ZM151.525 43L154.645 38.98V43H155.605V37.6H154.645L151.525 41.62V37.6H150.565V43H151.525ZM151.333 34.84C151.333 35.788 151.969 36.52 153.157 36.52C154.237 36.52 154.933 35.788 154.933 34.84H154.033C153.985 35.488 153.685 35.788 153.157 35.788C152.581 35.788 152.281 35.488 152.233 34.84H151.333ZM73.1965 61V56.98H71.7685L71.7325 57.556C71.6445 58.524 71.4965 59.268 71.2885 59.788C71.0885 60.308 70.8325 60.66 70.5205 60.844C70.2165 61.02 69.8085 61.108 69.2965 61.108L69.1765 59.764C69.3525 59.78 69.5165 59.732 69.6685 59.62C69.8285 59.5 69.9805 59.244 70.1245 58.852C70.2685 58.452 70.3605 57.928 70.4005 57.28L70.4845 55.6H74.5765V61H73.1965ZM76.1132 61V55.6H77.5772V57.556H78.5372C78.6812 56.924 78.9932 56.42 79.4732 56.044C79.9612 55.66 80.5612 55.468 81.2732 55.468C82.1372 55.468 82.8372 55.736 83.3732 56.272C83.9092 56.8 84.1772 57.476 84.1772 58.3C84.1772 59.116 83.9052 59.792 83.3612 60.328C82.8252 60.864 82.1292 61.132 81.2732 61.132C80.5372 61.132 79.9252 60.932 79.4372 60.532C78.9492 60.132 78.6412 59.6 78.5132 58.936H77.5772V61H76.1132ZM80.0132 58.3C80.0132 58.748 80.1332 59.104 80.3732 59.368C80.6132 59.624 80.9252 59.752 81.3092 59.752C81.7012 59.752 82.0172 59.624 82.2572 59.368C82.4972 59.104 82.6172 58.748 82.6172 58.3C82.6172 57.852 82.4972 57.5 82.2572 57.244C82.0252 56.98 81.7092 56.848 81.3092 56.848C80.9252 56.848 80.6132 56.98 80.3732 57.244C80.1332 57.508 80.0132 57.86 80.0132 58.3ZM89.4387 52.468L90.1587 53.596C89.9507 53.844 89.7107 54.02 89.4387 54.124C89.1667 54.22 88.8467 54.308 88.4787 54.388C88.1187 54.46 87.8067 54.56 87.5427 54.688C86.8707 55 86.4827 55.672 86.3787 56.704H86.4027C86.5707 56.408 86.8307 56.168 87.1827 55.984C87.5347 55.792 87.9067 55.696 88.2987 55.696C89.0427 55.696 89.6387 55.936 90.0867 56.416C90.5347 56.896 90.7587 57.54 90.7587 58.348C90.7587 59.124 90.4947 59.784 89.9667 60.328C89.4387 60.864 88.7587 61.132 87.9267 61.132C87.0227 61.132 86.3067 60.824 85.7787 60.208C85.2587 59.592 84.9987 58.76 84.9987 57.712C84.9987 55.4 85.6787 53.952 87.0387 53.368C87.3427 53.24 87.6707 53.144 88.0227 53.08C88.3747 53.008 88.6547 52.936 88.8627 52.864C89.0787 52.792 89.2707 52.66 89.4387 52.468ZM86.4747 58C86.4827 58.536 86.6147 58.98 86.8707 59.332C87.1267 59.676 87.4667 59.848 87.8907 59.848C88.3147 59.848 88.6507 59.712 88.8987 59.44C89.1547 59.16 89.2827 58.816 89.2827 58.408C89.2827 57.992 89.1667 57.652 88.9347 57.388C88.7027 57.116 88.3747 56.98 87.9507 56.98C87.5827 56.98 87.2667 57.076 87.0027 57.268C86.7467 57.46 86.5707 57.704 86.4747 58ZM92.425 60.34C91.889 59.804 91.621 59.124 91.621 58.3C91.621 57.476 91.889 56.8 92.425 56.272C92.969 55.736 93.681 55.468 94.561 55.468C95.441 55.468 96.149 55.736 96.685 56.272C97.229 56.8 97.501 57.476 97.501 58.3C97.501 59.124 97.229 59.804 96.685 60.34C96.149 60.868 95.441 61.132 94.561 61.132C93.681 61.132 92.969 60.868 92.425 60.34ZM93.097 58.3C93.097 58.748 93.233 59.12 93.505 59.416C93.785 59.704 94.137 59.848 94.561 59.848C94.993 59.848 95.345 59.708 95.617 59.428C95.897 59.14 96.037 58.764 96.037 58.3C96.037 57.852 95.897 57.484 95.617 57.196C95.337 56.908 94.985 56.764 94.561 56.764C94.145 56.764 93.797 56.908 93.517 57.196C93.237 57.476 93.097 57.844 93.097 58.3ZM100.075 61H98.6952V55.6H100.075V59.02L102.595 55.6H103.975V61H102.595V57.58L100.075 61ZM99.4992 52.9H100.759C100.759 53.148 100.807 53.356 100.903 53.524C101.007 53.692 101.167 53.776 101.383 53.776C101.575 53.776 101.719 53.692 101.815 53.524C101.911 53.356 101.959 53.148 101.959 52.9H103.219C103.219 53.444 103.059 53.892 102.739 54.244C102.419 54.588 101.967 54.76 101.383 54.76C100.743 54.76 100.267 54.592 99.9552 54.256C99.6512 53.912 99.4992 53.46 99.4992 52.9ZM112.151 59.188L112.799 60.196C112.575 60.5 112.271 60.732 111.887 60.892C111.511 61.052 111.099 61.132 110.651 61.132C109.771 61.132 109.063 60.872 108.527 60.352C107.991 59.832 107.723 59.148 107.723 58.3C107.723 57.5 107.987 56.828 108.515 56.284C109.043 55.74 109.711 55.468 110.519 55.468C111.479 55.468 112.203 55.712 112.691 56.2L112.043 57.292C111.683 56.94 111.235 56.764 110.699 56.764C110.299 56.764 109.947 56.908 109.643 57.196C109.347 57.476 109.199 57.844 109.199 58.3C109.199 58.764 109.351 59.14 109.655 59.428C109.967 59.708 110.335 59.848 110.759 59.848C111.287 59.848 111.751 59.628 112.151 59.188ZM117.4 61V56.98H115.972L115.936 57.556C115.848 58.524 115.7 59.268 115.492 59.788C115.292 60.308 115.036 60.66 114.724 60.844C114.42 61.02 114.012 61.108 113.5 61.108L113.38 59.764C113.556 59.78 113.72 59.732 113.872 59.62C114.032 59.5 114.184 59.244 114.328 58.852C114.472 58.452 114.564 57.928 114.604 57.28L114.688 55.6H118.78V61H117.4ZM120.784 60.34C120.248 59.804 119.98 59.124 119.98 58.3C119.98 57.476 120.248 56.8 120.784 56.272C121.328 55.736 122.04 55.468 122.92 55.468C123.8 55.468 124.508 55.736 125.044 56.272C125.588 56.8 125.86 57.476 125.86 58.3C125.86 59.124 125.588 59.804 125.044 60.34C124.508 60.868 123.8 61.132 122.92 61.132C122.04 61.132 121.328 60.868 120.784 60.34ZM121.456 58.3C121.456 58.748 121.592 59.12 121.864 59.416C122.144 59.704 122.496 59.848 122.92 59.848C123.352 59.848 123.704 59.708 123.976 59.428C124.256 59.14 124.396 58.764 124.396 58.3C124.396 57.852 124.256 57.484 123.976 57.196C123.696 56.908 123.344 56.764 122.92 56.764C122.504 56.764 122.156 56.908 121.876 57.196C121.596 57.476 121.456 57.844 121.456 58.3ZM134.226 55.6L132.438 58.216L134.37 61H132.738L130.938 58.216L132.594 55.6H134.226ZM129.498 61V55.6H130.878V61H129.498ZM127.95 58.216L126.15 55.6H127.83L129.438 58.216L127.686 61H126.042L127.95 58.216ZM138.978 61V58.936H136.614V61H135.234V55.6H136.614V57.64H138.978V55.6H140.358V61H138.978ZM142.359 60.34C141.823 59.804 141.555 59.124 141.555 58.3C141.555 57.476 141.823 56.8 142.359 56.272C142.903 55.736 143.615 55.468 144.495 55.468C145.375 55.468 146.083 55.736 146.619 56.272C147.163 56.8 147.435 57.476 147.435 58.3C147.435 59.124 147.163 59.804 146.619 60.34C146.083 60.868 145.375 61.132 144.495 61.132C143.615 61.132 142.903 60.868 142.359 60.34ZM143.031 58.3C143.031 58.748 143.167 59.12 143.439 59.416C143.719 59.704 144.071 59.848 144.495 59.848C144.927 59.848 145.279 59.708 145.551 59.428C145.831 59.14 145.971 58.764 145.971 58.3C145.971 57.852 145.831 57.484 145.551 57.196C145.271 56.908 144.919 56.764 144.495 56.764C144.079 56.764 143.731 56.908 143.451 57.196C143.171 57.476 143.031 57.844 143.031 58.3ZM152.721 59.188L153.369 60.196C153.145 60.5 152.841 60.732 152.457 60.892C152.081 61.052 151.669 61.132 151.221 61.132C150.341 61.132 149.633 60.872 149.097 60.352C148.561 59.832 148.293 59.148 148.293 58.3C148.293 57.5 148.557 56.828 149.085 56.284C149.613 55.74 150.281 55.468 151.089 55.468C152.049 55.468 152.773 55.712 153.261 56.2L152.613 57.292C152.253 56.94 151.805 56.764 151.269 56.764C150.869 56.764 150.517 56.908 150.213 57.196C149.917 57.476 149.769 57.844 149.769 58.3C149.769 58.764 149.921 59.14 150.225 59.428C150.537 59.708 150.905 59.848 151.329 59.848C151.857 59.848 152.321 59.628 152.721 59.188ZM153.807 56.98V55.6H158.727V56.98H156.963V61H155.583V56.98H153.807ZM161.095 61H159.715V55.6H161.095V59.02L163.615 55.6H164.995V61H163.615V57.58L161.095 61Z" fill="black"/>
<path d="M22.7507 51.1575C22.6926 51.1454 22.628 51.151 22.5703 51.1382V63.8252H28.8984V51.1381C28.842 51.1508 28.7793 51.145 28.7225 51.1568C27.7644 51.3561 26.7699 51.4762 25.7344 51.4762C24.7033 51.4762 23.7111 51.3576 22.7507 51.1575Z" fill="white"/>
<path d="M22.7507 51.1575C22.6926 51.1454 22.628 51.151 22.5703 51.1382V63.8252H28.8984V51.1381C28.842 51.1508 28.7793 51.145 28.7225 51.1568C27.7644 51.3561 26.7699 51.4762 25.7344 51.4762C24.7033 51.4762 23.7111 51.3576 22.7507 51.1575Z" fill="url(#paint0_linear)"/>
<path d="M14.5913 37.8114C14.5913 42.1618 17.3073 46.0183 21.5096 47.6389C22.1547 47.9073 22.8379 48.1077 23.5392 48.2407C25.6199 48.631 27.9065 48.4359 29.7813 47.6552C34.0237 46.0183 36.7397 42.1618 36.7397 37.8114C36.7397 34.2855 34.9368 31.0635 31.9937 29.0929V37.8114C31.9937 38.3185 31.7295 38.7929 31.2891 39.0746L26.543 42.1113C26.0116 42.4523 25.3194 42.4523 24.7879 42.1113L20.0418 39.0746C19.6015 38.7929 19.3373 38.3184 19.3373 37.8114V29.0929C16.3943 31.0635 14.5913 34.2855 14.5913 37.8114Z" fill="white"/>
<path d="M14.5913 37.8114C14.5913 42.1618 17.3073 46.0183 21.5096 47.6389C22.1547 47.9073 22.8379 48.1077 23.5392 48.2407C25.6199 48.631 27.9065 48.4359 29.7813 47.6552C34.0237 46.0183 36.7397 42.1618 36.7397 37.8114C36.7397 34.2855 34.9368 31.0635 31.9937 29.0929V37.8114C31.9937 38.3185 31.7295 38.7929 31.2891 39.0746L26.543 42.1113C26.0116 42.4523 25.3194 42.4523 24.7879 42.1113L20.0418 39.0746C19.6015 38.7929 19.3373 38.3184 19.3373 37.8114V29.0929C16.3943 31.0635 14.5913 34.2855 14.5913 37.8114Z" fill="url(#paint1_linear)"/>
<path d="M0.211819 46.773L4.95791 54.6612C5.29931 55.2261 5.98528 55.5241 6.64499 55.3892L14.0469 53.9361C15.0774 54.6375 16.1511 55.2395 17.2496 55.7317L19.5485 62.3491V49.9907C14.7367 47.7224 11.6383 43.0623 11.6383 37.8114C11.6383 32.2452 15.1284 27.2721 20.5295 25.1414C21.5583 24.7351 22.7125 25.4541 22.7125 26.5456V36.9988L25.8766 39.0227L29.0406 36.9988V26.5456C29.0406 25.4459 30.2096 24.7337 31.2236 25.1414C36.6248 27.2721 40.1149 32.2452 40.1149 37.8114C40.1149 43.0501 37.03 47.7007 32.2047 49.9885V62.3516L34.4974 55.7332C35.5989 55.241 36.6727 54.6389 37.7063 53.9361L45.1082 55.3892C45.7679 55.5196 46.4523 55.2275 46.7953 54.6612L51.5414 46.773C51.8813 46.2066 51.8071 45.4949 51.3545 45.0071L46.3458 39.5862C46.4059 39.0021 46.443 38.4119 46.443 37.8114C46.443 37.2109 46.4059 36.6207 46.3456 36.0366L51.3544 30.6157C51.807 30.1279 51.8812 29.4161 51.5412 28.8498L46.7952 20.9616C46.4538 20.3967 45.7724 20.109 45.1081 20.2336L37.7062 21.6867C36.6756 20.9853 35.602 20.3833 34.5035 19.8911L32.1228 13.0379C31.9081 12.4181 31.304 12 30.6227 12H21.1305C20.4492 12 19.8436 12.4181 19.6288 13.0394L17.2558 19.8897C16.1543 20.3819 15.0805 20.984 14.0469 21.6868L6.64499 20.2336C5.98064 20.1032 5.29931 20.3953 4.95791 20.9616L0.211819 28.8498C-0.128107 29.4162 -0.0539625 30.1279 0.398709 30.6157L5.40742 36.0366C5.3473 36.6207 5.31018 37.2109 5.31018 37.8114C5.31018 38.4119 5.3473 39.0021 5.40753 39.5862L0.398815 45.0071C-0.0538571 45.4949 -0.128002 46.2066 0.211819 46.773Z" fill="white"/>
<path d="M0.211819 46.773L4.95791 54.6612C5.29931 55.2261 5.98528 55.5241 6.64499 55.3892L14.0469 53.9361C15.0774 54.6375 16.1511 55.2395 17.2496 55.7317L19.5485 62.3491V49.9907C14.7367 47.7224 11.6383 43.0623 11.6383 37.8114C11.6383 32.2452 15.1284 27.2721 20.5295 25.1414C21.5583 24.7351 22.7125 25.4541 22.7125 26.5456V36.9988L25.8766 39.0227L29.0406 36.9988V26.5456C29.0406 25.4459 30.2096 24.7337 31.2236 25.1414C36.6248 27.2721 40.1149 32.2452 40.1149 37.8114C40.1149 43.0501 37.03 47.7007 32.2047 49.9885V62.3516L34.4974 55.7332C35.5989 55.241 36.6727 54.6389 37.7063 53.9361L45.1082 55.3892C45.7679 55.5196 46.4523 55.2275 46.7953 54.6612L51.5414 46.773C51.8813 46.2066 51.8071 45.4949 51.3545 45.0071L46.3458 39.5862C46.4059 39.0021 46.443 38.4119 46.443 37.8114C46.443 37.2109 46.4059 36.6207 46.3456 36.0366L51.3544 30.6157C51.807 30.1279 51.8812 29.4161 51.5412 28.8498L46.7952 20.9616C46.4538 20.3967 45.7724 20.109 45.1081 20.2336L37.7062 21.6867C36.6756 20.9853 35.602 20.3833 34.5035 19.8911L32.1228 13.0379C31.9081 12.4181 31.304 12 30.6227 12H21.1305C20.4492 12 19.8436 12.4181 19.6288 13.0394L17.2558 19.8897C16.1543 20.3819 15.0805 20.984 14.0469 21.6868L6.64499 20.2336C5.98064 20.1032 5.29931 20.3953 4.95791 20.9616L0.211819 28.8498C-0.128107 29.4162 -0.0539625 30.1279 0.398709 30.6157L5.40742 36.0366C5.3473 36.6207 5.31018 37.2109 5.31018 37.8114C5.31018 38.4119 5.3473 39.0021 5.40753 39.5862L0.398815 45.0071C-0.0538571 45.4949 -0.128002 46.2066 0.211819 46.773Z" fill="url(#paint2_linear)"/>
<defs>
<linearGradient id="paint0_linear" x1="25.7344" y1="51.1381" x2="25.7344" y2="63.8252" gradientUnits="userSpaceOnUse">
<stop stop-color="#E7B56D"/>
<stop offset="1" stop-color="#DC8A60"/>
</linearGradient>
<linearGradient id="paint1_linear" x1="25.6655" y1="29.0929" x2="25.6655" y2="48.4359" gradientUnits="userSpaceOnUse">
<stop stop-color="#E7B56D"/>
<stop offset="1" stop-color="#DC8A60"/>
</linearGradient>
<linearGradient id="paint2_linear" x1="25.8766" y1="12" x2="25.8766" y2="62.3516" gradientUnits="userSpaceOnUse">
<stop stop-color="#E7B56D"/>
<stop offset="1" stop-color="#DC8A60"/>
</linearGradient>
</defs>
</svg>
