<svg width="207" height="75" viewBox="0 0 207 75" fill="none" xmlns="http://www.w3.org/2000/svg">
<path d="M29.7488 6.73529C30.7801 2.76884 34.3609 0 38.4592 0H195.305C201.055 0 205.33 5.31813 204.095 10.9338L191.555 67.9337C190.647 72.0605 186.99 75 182.765 75H23.6392C17.7492 75 13.4467 69.4358 14.9288 63.7353L29.7488 6.73529Z" fill="#E1E1E1"/>
<path d="M70.04 25.48C69.488 26.2 68.744 25.864 67.484 26.404C65.768 27.124 65.48 29.164 65.48 30.76C65.48 32.836 66.584 34.12 68.336 34.12C69.98 34.12 71.108 32.86 71.108 31.348C71.108 29.728 70.148 28.66 68.6 28.66C67.688 28.66 66.812 29.164 66.464 29.92H66.44C66.512 28.912 66.8 27.772 67.808 27.316C68.996 26.776 69.896 27.124 70.556 26.236L70.04 25.48ZM66.5 30.94C66.668 30.244 67.34 29.56 68.36 29.56C69.476 29.56 70.088 30.34 70.088 31.396C70.088 32.404 69.368 33.22 68.312 33.22C67.244 33.22 66.5 32.332 66.5 30.94ZM72.4851 34H74.2251C75.9171 34 76.4691 33.028 76.4691 32.08C76.4691 31.12 75.9891 30.22 74.3331 30.22H73.4451V28.6H72.4851V34ZM77.5011 34H78.4611V28.6H77.5011V34ZM74.1531 31.12C75.0771 31.12 75.4491 31.468 75.4491 32.116C75.4491 32.752 75.1011 33.1 74.1411 33.1H73.4451V31.12H74.1531ZM84.3363 32.524C83.9763 32.932 83.4363 33.22 82.7883 33.22C81.7203 33.22 80.8443 32.488 80.8443 31.3C80.8443 30.16 81.7203 29.38 82.6923 29.38C83.2563 29.38 83.7843 29.524 84.2403 29.944L84.6843 29.188C84.1803 28.684 83.4243 28.48 82.5603 28.48C80.9763 28.48 79.8243 29.728 79.8243 31.3C79.8243 33.004 81.0003 34.12 82.7163 34.12C83.5443 34.12 84.3363 33.808 84.7923 33.22L84.3363 32.524ZM85.2894 29.56H87.2694V34H88.2294V29.56H90.2094V28.6H85.2894V29.56ZM91.2585 36.4H92.2185V33.748C92.6025 34 93.1665 34.12 93.7425 34.12C95.4345 34.12 96.5505 32.86 96.5505 31.216C96.5505 29.62 95.5905 28.48 94.0545 28.48C93.3105 28.48 92.5905 28.804 92.2185 29.236V28.6H91.2585V36.4ZM93.7785 29.38C94.8945 29.38 95.5305 30.16 95.5305 31.252C95.5305 32.392 94.8105 33.22 93.6585 33.22C93.1425 33.22 92.6985 33.124 92.2185 32.8V30.124C92.5545 29.704 93.1425 29.38 93.7785 29.38ZM97.9265 34H99.6665C101.359 34 101.911 33.028 101.911 32.08C101.911 31.12 101.431 30.22 99.7745 30.22H98.8865V28.6H97.9265V34ZM102.943 34H103.903V28.6H102.943V34ZM99.5945 31.12C100.519 31.12 100.891 31.468 100.891 32.116C100.891 32.752 100.543 33.1 99.5825 33.1H98.8865V31.12H99.5945ZM106.586 34L109.706 29.98V34H110.666V28.6H109.706L106.586 32.62V28.6H105.626V34H106.586ZM106.394 25.84C106.394 26.788 107.03 27.52 108.218 27.52C109.298 27.52 109.994 26.788 109.994 25.84H109.094C109.046 26.488 108.746 26.788 108.218 26.788C107.642 26.788 107.342 26.488 107.294 25.84H106.394ZM115.106 34C115.598 34 116.414 34.048 117.086 34.048C118.766 34.048 119.57 33.496 119.57 32.476C119.57 31.804 119.174 31.36 118.31 31.204V31.18C118.958 31.084 119.39 30.58 119.39 29.944C119.39 28.972 118.574 28.552 117.062 28.552C116.282 28.552 115.574 28.6 115.106 28.6V34ZM117.218 31.576C118.082 31.576 118.55 31.84 118.55 32.404C118.55 32.968 118.058 33.268 117.17 33.268C116.738 33.268 116.354 33.244 116.066 33.232V31.576H117.218ZM117.134 29.332C117.83 29.332 118.37 29.548 118.37 30.136C118.37 30.664 117.914 30.976 117.278 30.976H116.066V29.368C116.306 29.356 116.702 29.332 117.134 29.332ZM121.036 34H122.776C124.468 34 125.02 33.028 125.02 32.08C125.02 31.12 124.54 30.22 122.884 30.22H121.996V28.6H121.036V34ZM126.052 34H127.012V28.6H126.052V34ZM122.704 31.12C123.628 31.12 124 31.468 124 32.116C124 32.752 123.652 33.1 122.692 33.1H121.996V31.12H122.704ZM132.995 32.656C132.647 32.98 132.035 33.22 131.339 33.22C130.283 33.22 129.539 32.62 129.455 31.6H133.607C133.643 31.432 133.667 31.216 133.667 30.952C133.667 29.464 132.551 28.48 131.159 28.48C129.383 28.48 128.375 29.728 128.375 31.3C128.375 33.004 129.515 34.12 131.267 34.12C131.987 34.12 132.767 33.892 133.295 33.412L132.995 32.656ZM131.111 29.38C132.047 29.38 132.623 29.932 132.671 30.82H129.395C129.503 29.992 130.127 29.38 131.111 29.38ZM136.757 34.12C138.089 34.12 139.049 33.508 139.049 32.5C139.049 31.876 138.677 31.312 137.921 31.228V31.204C138.605 30.964 138.869 30.46 138.869 29.932C138.869 29.044 138.161 28.48 136.841 28.48C135.989 28.48 135.149 28.744 134.705 29.2L135.077 29.944C135.437 29.656 135.953 29.344 136.697 29.344C137.393 29.344 137.849 29.632 137.849 30.124C137.849 30.556 137.453 30.892 136.913 30.892H136.061V31.672H136.973C137.633 31.672 138.029 31.924 138.029 32.368C138.029 32.908 137.429 33.256 136.613 33.256C136.145 33.256 135.473 33.04 135.017 32.668L134.525 33.388C134.885 33.82 135.965 34.12 136.757 34.12ZM139.768 35.32H140.668V34H145.036V35.32H145.936V33.1H145.036V28.6H141.352L141.268 30.028C141.172 31.504 140.8 32.644 140.44 33.1H139.768V35.32ZM142.192 30.4L142.252 29.5H144.076V33.1H141.46C141.712 32.764 142.072 31.78 142.192 30.4ZM65.864 52C66.356 52 67.172 52.048 67.844 52.048C69.524 52.048 70.328 51.496 70.328 50.476C70.328 49.804 69.932 49.36 69.068 49.204V49.18C69.716 49.084 70.148 48.58 70.148 47.944C70.148 46.972 69.332 46.552 67.82 46.552C67.04 46.552 66.332 46.6 65.864 46.6V52ZM67.976 49.576C68.84 49.576 69.308 49.84 69.308 50.404C69.308 50.968 68.816 51.268 67.928 51.268C67.496 51.268 67.112 51.244 66.824 51.232V49.576H67.976ZM67.892 47.332C68.588 47.332 69.128 47.548 69.128 48.136C69.128 48.664 68.672 48.976 68.036 48.976H66.824V47.368C67.064 47.356 67.46 47.332 67.892 47.332ZM73.805 47.56H75.785V52H76.745V47.56H78.725V46.6H73.805V47.56ZM83.8584 50.656C83.5104 50.98 82.8984 51.22 82.2024 51.22C81.1464 51.22 80.4024 50.62 80.3184 49.6H84.4704C84.5064 49.432 84.5304 49.216 84.5304 48.952C84.5304 47.464 83.4144 46.48 82.0224 46.48C80.2464 46.48 79.2384 47.728 79.2384 49.3C79.2384 51.004 80.3784 52.12 82.1304 52.12C82.8504 52.12 83.6304 51.892 84.1584 51.412L83.8584 50.656ZM81.9744 47.38C82.9104 47.38 83.4864 47.932 83.5344 48.82H80.2584C80.3664 47.992 80.9904 47.38 81.9744 47.38ZM89.8888 46.6H88.9288V49.06C88.6888 49.228 88.2328 49.396 87.6928 49.396C86.9608 49.396 86.5288 48.988 86.5288 48.124V46.6H85.5088V48.232C85.5088 49.624 86.1328 50.296 87.4288 50.296C88.0288 50.296 88.5688 50.128 88.9288 49.9V52H89.8888V46.6ZM95.8818 50.656C95.5338 50.98 94.9218 51.22 94.2258 51.22C93.1698 51.22 92.4258 50.62 92.3418 49.6H96.4938C96.5298 49.432 96.5538 49.216 96.5538 48.952C96.5538 47.464 95.4378 46.48 94.0458 46.48C92.2698 46.48 91.2618 47.728 91.2618 49.3C91.2618 51.004 92.4018 52.12 94.1538 52.12C94.8738 52.12 95.6538 51.892 96.1818 51.412L95.8818 50.656ZM93.9978 47.38C94.9338 47.38 95.5098 47.932 95.5578 48.82H92.2818C92.3898 47.992 93.0138 47.38 93.9978 47.38ZM101.816 52H102.776V46.6H101.816V48.82H98.8162V46.6H97.8562V52H98.8162V49.72H101.816V52ZM105.472 52L108.592 47.98V52H109.552V46.6H108.592L105.472 50.62V46.6H104.512V52H105.472ZM112.258 52L115.378 47.98V52H116.338V46.6H115.378L112.258 50.62V46.6H111.298V52H112.258ZM122.842 52.132C122.218 52.132 121.674 52.008 121.21 51.76C120.746 51.504 120.402 51.156 120.178 50.716L120.958 49.708C121.43 50.404 122.03 50.752 122.758 50.752C123.19 50.752 123.522 50.644 123.754 50.428C123.994 50.204 124.114 49.924 124.114 49.588C124.114 49.204 123.974 48.912 123.694 48.712C123.422 48.504 123.042 48.4 122.554 48.4H121.954V47.02H122.494C122.854 47.02 123.158 46.916 123.406 46.708C123.662 46.492 123.79 46.212 123.79 45.868C123.79 45.556 123.698 45.308 123.514 45.124C123.338 44.94 123.074 44.848 122.722 44.848C122.074 44.848 121.546 45.148 121.138 45.748L120.37 44.776C120.834 43.904 121.662 43.468 122.854 43.468C123.582 43.468 124.166 43.66 124.606 44.044C125.046 44.428 125.266 44.948 125.266 45.604C125.266 46.556 124.838 47.22 123.982 47.596V47.632C124.494 47.72 124.89 47.948 125.17 48.316C125.45 48.684 125.59 49.124 125.59 49.636C125.59 50.396 125.33 51.004 124.81 51.46C124.29 51.908 123.634 52.132 122.842 52.132ZM127.501 50.944C127.021 50.176 126.781 49.128 126.781 47.8C126.781 46.472 127.017 45.424 127.489 44.656C127.961 43.888 128.665 43.504 129.601 43.504C130.529 43.504 131.229 43.888 131.701 44.656C132.173 45.424 132.409 46.472 132.409 47.8C132.409 49.136 132.177 50.188 131.713 50.956C131.249 51.716 130.553 52.096 129.625 52.096C128.689 52.096 127.981 51.712 127.501 50.944ZM128.257 47.8C128.257 49.808 128.713 50.812 129.625 50.812C130.097 50.812 130.433 50.576 130.633 50.104C130.841 49.624 130.945 48.856 130.945 47.8C130.945 46.752 130.841 45.992 130.633 45.52C130.425 45.04 130.081 44.8 129.601 44.8C129.129 44.8 128.785 45.044 128.569 45.532C128.361 46.02 128.257 46.776 128.257 47.8ZM136.233 52V46.6H137.481L139.317 48.856L141.057 46.6H142.269V52H140.889V48.7L139.293 50.716H139.257L137.613 48.7V52H136.233ZM145.183 52H143.803V46.6H145.183V50.02L147.703 46.6H149.083V52H147.703V48.58L145.183 52ZM154.367 52V49.936H152.003V52H150.623V46.6H152.003V48.64H154.367V46.6H155.747V52H154.367Z" fill="black"/>
<path d="M46.092 18.9082C40.9923 13.8085 34.212 11 27 11C19.788 11 13.0077 13.8085 7.90805 18.9082C2.80842 24.0078 0 30.788 0 38C0 45.212 2.80842 51.9923 7.90805 57.0919C13.0077 62.1914 19.788 65 27 65C34.212 65 40.9923 62.1915 46.092 57.0919C51.1916 51.9922 54 45.212 54 38C54 30.788 51.1916 24.0077 46.092 18.9082ZM27 59.7004C15.0343 59.7004 5.29959 49.9656 5.29959 38C5.29959 37.9804 5.30023 37.961 5.30033 37.9416C5.30033 37.9366 5.29959 37.9319 5.29959 37.9269C5.29959 37.9186 5.30065 37.9106 5.30086 37.9023C5.35349 26.08 14.9076 16.4616 26.7051 16.3034C26.7298 16.3022 26.7543 16.2997 26.7793 16.2997C26.7942 16.2997 26.8088 16.3015 26.8237 16.3019C26.8825 16.3015 26.9411 16.2997 27.0001 16.2997C38.9659 16.2997 48.7005 26.0345 48.7005 38.0001C48.7005 49.9657 38.9657 59.7004 27 59.7004Z" fill="#C4C4C4"/>
<path d="M46.092 18.9082C40.9923 13.8085 34.212 11 27 11C19.788 11 13.0077 13.8085 7.90805 18.9082C2.80842 24.0078 0 30.788 0 38C0 45.212 2.80842 51.9923 7.90805 57.0919C13.0077 62.1914 19.788 65 27 65C34.212 65 40.9923 62.1915 46.092 57.0919C51.1916 51.9922 54 45.212 54 38C54 30.788 51.1916 24.0077 46.092 18.9082ZM27 59.7004C15.0343 59.7004 5.29959 49.9656 5.29959 38C5.29959 37.9804 5.30023 37.961 5.30033 37.9416C5.30033 37.9366 5.29959 37.9319 5.29959 37.9269C5.29959 37.9186 5.30065 37.9106 5.30086 37.9023C5.35349 26.08 14.9076 16.4616 26.7051 16.3034C26.7298 16.3022 26.7543 16.2997 26.7793 16.2997C26.7942 16.2997 26.8088 16.3015 26.8237 16.3019C26.8825 16.3015 26.9411 16.2997 27.0001 16.2997C38.9659 16.2997 48.7005 26.0345 48.7005 38.0001C48.7005 49.9657 38.9657 59.7004 27 59.7004Z" fill="url(#paint0_linear)"/>
<path d="M43.4836 39.3036C42.6012 39.3036 41.8859 38.5883 41.8859 37.706C41.8859 36.8236 42.6012 36.1083 43.4836 36.1083H45.4093C44.5048 27.2409 37.3133 20.2065 28.3769 19.546V21.2225C28.3769 22.1048 27.6617 22.8201 26.7793 22.8201C25.897 22.8201 25.1817 22.1048 25.1817 21.2225V19.5842C16.3776 20.4469 9.36463 27.5051 8.57118 36.3291H10.2958C11.1782 36.3291 11.8934 37.0444 11.8934 37.9267C11.8934 38.8091 11.1782 39.5244 10.2958 39.5244H8.55811C9.2927 48.4904 16.4462 55.6658 25.4025 56.4354V54.4101C25.4025 53.5278 26.1178 52.8125 27.0002 52.8125C27.8825 52.8125 28.5978 53.5278 28.5978 54.4101V56.4354C37.6274 55.6595 44.8245 48.3722 45.4588 39.3036H43.4836ZM33.4675 33.792L28.1299 39.1297C27.8303 39.4293 27.424 39.5977 27.0003 39.5977C26.5766 39.5977 26.1701 39.4293 25.8706 39.1297L16.5795 29.8386C15.9556 29.2148 15.9556 28.2032 16.5795 27.5793C17.2034 26.9553 18.2149 26.9553 18.8389 27.5793L27.0004 35.7407L31.2084 31.5327C31.8322 30.9087 32.8438 30.9087 33.4677 31.5327C34.0915 32.1565 34.0915 33.1682 33.4675 33.792Z" fill="#C4C4C4"/>
<path d="M43.4836 39.3036C42.6012 39.3036 41.8859 38.5883 41.8859 37.706C41.8859 36.8236 42.6012 36.1083 43.4836 36.1083H45.4093C44.5048 27.2409 37.3133 20.2065 28.3769 19.546V21.2225C28.3769 22.1048 27.6617 22.8201 26.7793 22.8201C25.897 22.8201 25.1817 22.1048 25.1817 21.2225V19.5842C16.3776 20.4469 9.36463 27.5051 8.57118 36.3291H10.2958C11.1782 36.3291 11.8934 37.0444 11.8934 37.9267C11.8934 38.8091 11.1782 39.5244 10.2958 39.5244H8.55811C9.2927 48.4904 16.4462 55.6658 25.4025 56.4354V54.4101C25.4025 53.5278 26.1178 52.8125 27.0002 52.8125C27.8825 52.8125 28.5978 53.5278 28.5978 54.4101V56.4354C37.6274 55.6595 44.8245 48.3722 45.4588 39.3036H43.4836ZM33.4675 33.792L28.1299 39.1297C27.8303 39.4293 27.424 39.5977 27.0003 39.5977C26.5766 39.5977 26.1701 39.4293 25.8706 39.1297L16.5795 29.8386C15.9556 29.2148 15.9556 28.2032 16.5795 27.5793C17.2034 26.9553 18.2149 26.9553 18.8389 27.5793L27.0004 35.7407L31.2084 31.5327C31.8322 30.9087 32.8438 30.9087 33.4677 31.5327C34.0915 32.1565 34.0915 33.1682 33.4675 33.792Z" fill="url(#paint1_linear)"/>
<defs>
<linearGradient id="paint0_linear" x1="27" y1="11" x2="27" y2="65" gradientUnits="userSpaceOnUse">
<stop stop-color="#E7B56D"/>
<stop offset="1" stop-color="#DC8A60"/>
</linearGradient>
<linearGradient id="paint1_linear" x1="27.0084" y1="19.546" x2="27.0084" y2="56.4354" gradientUnits="userSpaceOnUse">
<stop stop-color="#E7B56D"/>
<stop offset="1" stop-color="#DC8A60"/>
</linearGradient>
</defs>
</svg>
