<svg width="26" height="26" viewBox="0 0 26 26" fill="none" xmlns="http://www.w3.org/2000/svg">
<g clip-path="url(#clip0)">
<path d="M6.06683 8.66363H6.0755C8.13524 8.6095 10.0614 7.63186 11.321 6.00123C11.7309 5.49503 12.3472 5.20063 12.9986 5.19987C13.6499 5.19912 14.2669 5.49208 14.678 5.99733C15.9377 7.62925 17.8644 8.60828 19.9253 8.66363H19.9335L21.6668 8.66666V8.23333C21.6668 7.75468 21.2788 7.36666 20.8002 7.36666H20.1458C18.4058 7.34607 16.7677 6.54216 15.6868 5.17833C15.0294 4.36951 14.0425 3.89993 13.0002 3.89993C11.9578 3.89993 10.971 4.36951 10.3135 5.17833C9.23264 6.54216 7.59457 7.34607 5.8545 7.36666H5.20016C4.72152 7.36666 4.3335 7.75468 4.3335 8.23333V8.66666L6.06683 8.66363Z" fill="#C4C4C4"/>
<path d="M6.06683 8.66363H6.0755C8.13524 8.6095 10.0614 7.63186 11.321 6.00123C11.7309 5.49503 12.3472 5.20063 12.9986 5.19987C13.6499 5.19912 14.2669 5.49208 14.678 5.99733C15.9377 7.62925 17.8644 8.60828 19.9253 8.66363H19.9335L21.6668 8.66666V8.23333C21.6668 7.75468 21.2788 7.36666 20.8002 7.36666H20.1458C18.4058 7.34607 16.7677 6.54216 15.6868 5.17833C15.0294 4.36951 14.0425 3.89993 13.0002 3.89993C11.9578 3.89993 10.971 4.36951 10.3135 5.17833C9.23264 6.54216 7.59457 7.34607 5.8545 7.36666H5.20016C4.72152 7.36666 4.3335 7.75468 4.3335 8.23333V8.66666L6.06683 8.66363Z" fill="url(#paint0_linear)"/>
<path d="M19.9333 9.53029H19.9237C17.602 9.4751 15.4284 8.37818 14.0048 6.54332C13.7583 6.24033 13.3882 6.06473 12.9976 6.0654C12.607 6.06607 12.2375 6.24294 11.992 6.54679C10.5707 8.38738 8.39165 9.48453 6.0666 9.53029L4.33327 9.53332V13C4.29867 17.6177 7.74388 21.522 12.33 22.0623C12.7752 22.1126 13.2247 22.1126 13.6699 22.0623C18.256 21.522 21.7012 17.6177 21.6666 13V9.53332L19.9333 9.53029ZM7.43333 10.8385C11.1227 11.4062 14.8772 11.4062 18.5665 10.8385C18.7204 10.8127 18.8763 10.8715 18.9747 10.9927C19.0731 11.1138 19.0987 11.2784 19.0419 11.4237C18.985 11.5691 18.8544 11.6726 18.7 11.6948C16.814 11.9865 14.9083 12.1322 12.9999 12.1307C11.0915 12.1322 9.18585 11.9865 7.29987 11.6948C7.06582 11.6555 6.90695 11.4352 6.9435 11.2007C6.98005 10.9662 7.19842 10.8047 7.43333 10.8385ZM6.95277 13.7367C6.98689 13.6269 7.06322 13.5352 7.16497 13.4817C7.26672 13.4282 7.38554 13.4174 7.4953 13.4515C11.0792 14.5739 14.9206 14.5739 18.5046 13.4515C18.6524 13.4055 18.8136 13.4419 18.9273 13.547C19.0411 13.652 19.0901 13.8098 19.056 13.9608C19.0219 14.1118 18.9098 14.2332 18.762 14.2792C16.8969 14.8627 14.9542 15.1602 12.9999 15.1615C11.0453 15.1608 9.10215 14.8637 7.2366 14.2805C7.12678 14.2461 7.03514 14.1695 6.98189 14.0674C6.92864 13.9654 6.91817 13.8464 6.95277 13.7367ZM18.82 17.29C15.1474 19.0841 10.8525 19.0841 7.17983 17.29C7.02989 17.2298 6.92585 17.0913 6.90993 16.9305C6.89401 16.7697 6.96885 16.6135 7.10409 16.5251C7.23933 16.4367 7.41251 16.4309 7.55337 16.51C10.9903 18.1892 15.0096 18.1892 18.4465 16.51C18.5874 16.4309 18.7605 16.4367 18.8958 16.5251C19.031 16.6135 19.1059 16.7697 19.0899 16.9305C19.074 17.0913 18.97 17.2298 18.82 17.29Z" fill="#C4C4C4"/>
<path d="M19.9333 9.53029H19.9237C17.602 9.4751 15.4284 8.37818 14.0048 6.54332C13.7583 6.24033 13.3882 6.06473 12.9976 6.0654C12.607 6.06607 12.2375 6.24294 11.992 6.54679C10.5707 8.38738 8.39165 9.48453 6.0666 9.53029L4.33327 9.53332V13C4.29867 17.6177 7.74388 21.522 12.33 22.0623C12.7752 22.1126 13.2247 22.1126 13.6699 22.0623C18.256 21.522 21.7012 17.6177 21.6666 13V9.53332L19.9333 9.53029ZM7.43333 10.8385C11.1227 11.4062 14.8772 11.4062 18.5665 10.8385C18.7204 10.8127 18.8763 10.8715 18.9747 10.9927C19.0731 11.1138 19.0987 11.2784 19.0419 11.4237C18.985 11.5691 18.8544 11.6726 18.7 11.6948C16.814 11.9865 14.9083 12.1322 12.9999 12.1307C11.0915 12.1322 9.18585 11.9865 7.29987 11.6948C7.06582 11.6555 6.90695 11.4352 6.9435 11.2007C6.98005 10.9662 7.19842 10.8047 7.43333 10.8385ZM6.95277 13.7367C6.98689 13.6269 7.06322 13.5352 7.16497 13.4817C7.26672 13.4282 7.38554 13.4174 7.4953 13.4515C11.0792 14.5739 14.9206 14.5739 18.5046 13.4515C18.6524 13.4055 18.8136 13.4419 18.9273 13.547C19.0411 13.652 19.0901 13.8098 19.056 13.9608C19.0219 14.1118 18.9098 14.2332 18.762 14.2792C16.8969 14.8627 14.9542 15.1602 12.9999 15.1615C11.0453 15.1608 9.10215 14.8637 7.2366 14.2805C7.12678 14.2461 7.03514 14.1695 6.98189 14.0674C6.92864 13.9654 6.91817 13.8464 6.95277 13.7367ZM18.82 17.29C15.1474 19.0841 10.8525 19.0841 7.17983 17.29C7.02989 17.2298 6.92585 17.0913 6.90993 16.9305C6.89401 16.7697 6.96885 16.6135 7.10409 16.5251C7.23933 16.4367 7.41251 16.4309 7.55337 16.51C10.9903 18.1892 15.0096 18.1892 18.4465 16.51C18.5874 16.4309 18.7605 16.4367 18.8958 16.5251C19.031 16.6135 19.1059 16.7697 19.0899 16.9305C19.074 17.0913 18.97 17.2298 18.82 17.29Z" fill="url(#paint1_linear)"/>
<path d="M4.02133 16.3237C1.77667 15.795 0 13.8233 0 11.7V9.53332C0 8.57603 0.77604 7.79999 1.73333 7.79999H3.523C3.4843 7.94114 3.46534 8.08697 3.46667 8.23332V8.66665H1.73333C1.25528 8.66808 0.868095 9.05527 0.866667 9.53332V11.7C0.866667 13.4117 2.20133 14.781 3.73533 15.3313C3.81286 15.667 3.90833 15.9982 4.02133 16.3237Z" fill="#C4C4C4"/>
<path d="M4.02133 16.3237C1.77667 15.795 0 13.8233 0 11.7V9.53332C0 8.57603 0.77604 7.79999 1.73333 7.79999H3.523C3.4843 7.94114 3.46534 8.08697 3.46667 8.23332V8.66665H1.73333C1.25528 8.66808 0.868095 9.05527 0.866667 9.53332V11.7C0.866667 13.4117 2.20133 14.781 3.73533 15.3313C3.81286 15.667 3.90833 15.9982 4.02133 16.3237Z" fill="url(#paint2_linear)"/>
<path d="M25.9998 9.53332V11.7C25.9998 13.8233 24.2232 15.795 21.9785 16.3237C22.0915 15.9982 22.187 15.667 22.2645 15.3313C23.7985 14.781 25.1332 13.4117 25.1332 11.7V9.53332C25.1318 9.05527 24.7446 8.66808 24.2665 8.66665H22.5332V8.23332C22.5345 8.08697 22.5155 7.94114 22.4768 7.79999H24.2665C25.2238 7.79999 25.9998 8.57603 25.9998 9.53332Z" fill="#C4C4C4"/>
<path d="M25.9998 9.53332V11.7C25.9998 13.8233 24.2232 15.795 21.9785 16.3237C22.0915 15.9982 22.187 15.667 22.2645 15.3313C23.7985 14.781 25.1332 13.4117 25.1332 11.7V9.53332C25.1318 9.05527 24.7446 8.66808 24.2665 8.66665H22.5332V8.23332C22.5345 8.08697 22.5155 7.94114 22.4768 7.79999H24.2665C25.2238 7.79999 25.9998 8.57603 25.9998 9.53332Z" fill="url(#paint3_linear)"/>
</g>
<defs>
<linearGradient id="paint0_linear" x1="13.0002" y1="3.89993" x2="13.0002" y2="8.66666" gradientUnits="userSpaceOnUse">
<stop stop-color="#E7B56D"/>
<stop offset="1" stop-color="#DC8A60"/>
</linearGradient>
<linearGradient id="paint1_linear" x1="12.9999" y1="6.0654" x2="12.9999" y2="22.1" gradientUnits="userSpaceOnUse">
<stop stop-color="#E7B56D"/>
<stop offset="1" stop-color="#DC8A60"/>
</linearGradient>
<linearGradient id="paint2_linear" x1="2.01067" y1="7.79999" x2="2.01067" y2="16.3237" gradientUnits="userSpaceOnUse">
<stop stop-color="#E7B56D"/>
<stop offset="1" stop-color="#DC8A60"/>
</linearGradient>
<linearGradient id="paint3_linear" x1="23.9892" y1="7.79999" x2="23.9892" y2="16.3237" gradientUnits="userSpaceOnUse">
<stop stop-color="#E7B56D"/>
<stop offset="1" stop-color="#DC8A60"/>
</linearGradient>
<clipPath id="clip0">
<rect width="26" height="26" fill="white"/>
</clipPath>
</defs>
</svg>
