<svg width="34" height="34" viewBox="0 0 34 34" fill="none" xmlns="http://www.w3.org/2000/svg">
<g clip-path="url(#clip0)">
<path d="M8.79297 20.3919V21.4469L11.724 24.378L14.655 21.4469V20.3919C13.7746 20.8433 12.7796 21.1035 11.724 21.1035C10.6684 21.1035 9.67342 20.8433 8.79297 20.3919Z" fill="white"/>
<path d="M8.0907 26.9655H15.3576L16.3131 22.6646L15.3997 22.3603L11.7242 26.0358L8.04863 22.3603L7.13525 22.6646L8.0907 26.9655Z" fill="white"/>
<path d="M18.1726 11.8321V14.6552C18.1726 14.8192 18.1603 14.9801 18.1479 15.1412C18.8415 14.9054 19.345 14.2547 19.345 13.4828C19.345 12.7197 18.8532 12.0748 18.1726 11.8321Z" fill="white"/>
<path d="M5.27593 11.8321C4.59527 12.0748 4.10352 12.7197 4.10352 13.4828C4.10352 14.2547 4.607 14.9054 5.30055 15.1412C5.28824 14.9801 5.27593 14.8192 5.27593 14.6552V11.8321Z" fill="white"/>
<path d="M6.44824 14.6552C6.44824 17.5645 8.81482 19.931 11.7241 19.931C14.6334 19.931 17 17.5645 17 14.6552V14.3292C16.6536 14.5309 16.2566 14.6552 15.8276 14.6552H14.6551C13.791 14.6552 13.0431 14.1803 12.6363 13.4828H10.8119C10.4051 14.1803 9.65721 14.6552 8.79307 14.6552H7.62066C7.19159 14.6552 6.79459 14.5309 6.44824 14.3292V14.6552ZM10.5517 15.8276C10.5517 16.4742 11.0775 17 11.7241 17C12.3707 17 12.8965 16.4742 12.8965 15.8276H14.0689C14.0689 17.1208 13.0173 18.1724 11.7241 18.1724C10.4309 18.1724 9.37928 17.1208 9.37928 15.8276H10.5517Z" fill="white"/>
<path d="M2.4129 12.6052L2.95961 12.8994L2.63387 13.4284C2.17762 14.1691 2.15958 15.0877 2.58636 15.8276C3.01313 16.5675 3.80199 17.0303 4.68731 16.986L5.30816 16.9682L5.29041 17.5891C5.26522 18.4584 5.70888 19.2633 6.4488 19.69C6.80745 19.8975 7.21218 19.9986 7.62121 19.9949V19.6262C6.61825 18.7967 5.87547 17.6678 5.51739 16.3797C4.06476 16.2057 2.93098 14.9806 2.93098 13.4828C2.93098 12.0676 3.93996 10.8835 5.27581 10.611V8.2069H6.06295C8.04512 8.2069 9.90851 7.4355 11.3096 6.03381L11.7241 5.61934L12.1386 6.03381C13.5402 7.4355 15.4031 8.2069 17.3852 8.2069H18.1724V10.611C19.5082 10.8835 20.5172 12.067 20.5172 13.4828C20.5172 14.9806 19.3834 16.2057 17.9314 16.3786C17.5733 17.6666 16.8305 18.7955 15.8275 19.6251V19.9949C16.2369 19.9986 16.6424 19.8964 17 19.6895C17.7399 19.2627 18.1835 18.4578 18.1583 17.5885L18.1406 16.9677L18.7614 16.9854C18.7849 16.9865 18.8078 16.9865 18.8307 16.9865C19.6737 16.9865 20.4473 16.5469 20.8624 15.827C21.2897 15.0871 21.2711 14.1686 20.8149 13.4275L20.4891 12.8988L21.0358 12.6046C21.8004 12.1924 22.2758 11.4058 22.2758 10.5517C22.2758 9.6976 21.8004 8.91103 21.0353 8.49828L20.4886 8.20403L20.8143 7.67507C21.2706 6.9343 21.2892 6.01578 20.8618 5.27586C20.4468 4.55598 19.6731 4.11633 18.8301 4.11633C18.8072 4.11633 18.7843 4.11633 18.7609 4.11747L18.14 4.13522L18.1578 3.51438C18.1835 2.64566 17.7399 1.84077 17 1.414C16.2595 0.986648 15.3409 1.00411 14.6007 1.46151L14.0718 1.78724L13.7775 1.24054C13.3648 0.475434 12.5782 0 11.7241 0C10.87 0 10.0834 0.475434 9.67065 1.24054L9.3764 1.78724L8.84744 1.46151C8.10609 1.00354 7.18671 0.98722 6.44823 1.414C5.70831 1.84077 5.26465 2.64566 5.28984 3.51495L5.30758 4.13579L4.68674 4.11805C3.80514 4.0711 3.01313 4.53652 2.58636 5.27586C2.15901 6.01578 2.17762 6.9343 2.63387 7.67507L2.95961 8.20403L2.4129 8.49828C1.6478 8.91103 1.17236 9.6976 1.17236 10.5517C1.17236 11.4058 1.6478 12.1924 2.4129 12.6052Z" fill="white"/>
<path d="M17 9.37042C15.0384 9.28484 13.1953 8.54349 11.7241 7.25143C10.2529 8.54349 8.4098 9.28484 6.44824 9.37042V10.0734C6.63229 10.0076 6.82807 9.9655 7.03445 9.9655H9.37928C10.3488 9.9655 11.1379 10.7546 11.1379 11.7241V12.3103H12.3103V11.7241C12.3103 10.7546 13.0995 9.9655 14.0689 9.9655H16.4138C16.6201 9.9655 16.8159 10.0076 17 10.0734V9.37042Z" fill="white"/>
<path d="M6.44824 12.3104C6.44824 12.957 6.97405 13.4828 7.62066 13.4828H8.79307C9.43967 13.4828 9.96549 12.957 9.96549 12.3104V11.7241C9.96549 11.4007 9.70272 11.1379 9.37928 11.1379H7.03445C6.71101 11.1379 6.44824 11.4007 6.44824 11.7241V12.3104Z" fill="white"/>
<path d="M14.0691 11.1379C13.7457 11.1379 13.4829 11.4007 13.4829 11.7241V12.3104C13.4829 12.957 14.0087 13.4828 14.6553 13.4828H15.8277C16.4743 13.4828 17.0001 12.957 17.0001 12.3104V11.7241C17.0001 11.4007 16.7374 11.1379 16.4139 11.1379H14.0691Z" fill="white"/>
<path d="M3.51724 23.871L2.00421 24.3751C0.805462 24.775 0 25.8921 0 27.1556V34H2.34483V29.7188L2.44329 29.5711C3.14571 28.5172 3.51724 27.291 3.51724 26.0247V23.871Z" fill="white"/>
<path d="M28.7243 31.6552H25.2071V32.8276H24.0347V34H29.8967V32.8276H28.7243V31.6552Z" fill="white"/>
<path d="M18.7585 29.8966V23.4795L17.4312 23.0367L16.2974 28.1379H7.15054L6.01677 23.0373L4.6895 23.4801V26.0247C4.6895 27.4627 4.28506 28.8578 3.51709 30.07V34H5.86192V29.3104H17.5861V34H21.1033V31.6552H20.5171C19.5476 31.6552 18.7585 30.866 18.7585 29.8966Z" fill="white"/>
<path d="M19.9312 29.8965C19.9312 30.22 20.1939 30.4827 20.5174 30.4827H33.4139C33.7374 30.4827 34.0001 30.22 34.0001 29.8965V29.3103H19.9312V29.8965Z" fill="white"/>
<path d="M7.03467 34H16.414V30.4828H7.03467V34ZM14.0692 31.6552H15.2416V32.8276H14.0692V31.6552ZM10.5519 31.6552H12.8967V32.8276H10.5519V31.6552ZM8.20708 31.6552H9.3795V32.8276H8.20708V31.6552Z" fill="white"/>
<path d="M33.4139 21.1035H20.5174C20.1939 21.1035 19.9312 21.3662 19.9312 21.6897V28.1379H34.0001V21.6897C34.0001 21.3662 33.7374 21.1035 33.4139 21.1035ZM26.5512 27.38L21.8615 22.6903L22.6904 21.8614L27.3801 26.5511L26.5512 27.38ZM31.2408 27.38L26.5512 22.6903L27.3801 21.8614L32.0698 26.5511L31.2408 27.38Z" fill="white"/>
</g>
<defs>
<clipPath id="clip0">
<rect width="34" height="34" fill="white"/>
</clipPath>
</defs>
</svg>
